<?xml version="1.0" encoding="utf-8"?>
<!-- Generator: Adobe Illustrator 16.0.0, SVG Export Plug-In . SVG Version: 6.00 Build 0)  -->
<!DOCTYPE svg PUBLIC "-//W3C//DTD SVG 1.1//EN" "http://www.w3.org/Graphics/SVG/1.1/DTD/svg11.dtd">
<svg version="1.1" id="Layer_1" xmlns="http://www.w3.org/2000/svg" xmlns:xlink="http://www.w3.org/1999/xlink" x="0px" y="0px"
	 width="5669.29px" height="4251.969px" viewBox="0 0 5669.29 4251.969" enable-background="new 0 0 5669.29 4251.969"
	 xml:space="preserve">
<path fill="#8A3FFC" d="M3815.238,1013.386c308.268,195.591,610.158,459.213,707.953,792.993
	c95.67,331.654-12.756,733.464-233.857,1024.724c-221.104,293.387-554.883,478.348-905.67,603.779
	c-352.914,125.434-724.96,193.465-1052.362,93.545c-327.401-99.922-610.157-365.67-846.142-697.324
	c-238.11-329.527-429.449-727.086-359.292-1069.371c70.158-340.157,403.938-627.165,739.844-818.504
	c335.904-189.213,676.063-282.756,1003.465-265.748C3194.451,694.488,3506.97,819.922,3815.238,1013.386z"/>
</svg>
